<?xml version="1.0" encoding="UTF-8"?>
<svg id="_Слой_1" data-name=" Слой 1" xmlns="http://www.w3.org/2000/svg" viewBox="0 0 32 32">
  <defs>
    <style>
      .cls-1 {
        fill: #212121;
      }
    </style>
  </defs>
  <path class="cls-1" d="M2.09,16.5l1.41,1.41,2.53-2.5c-.01,.2-.03,.39-.03,.59,0,5.5,4.5,10,10,10,1.5,0,2.89-.3,4.09-.91l-1.5-1.5c-.8,.2-1.7,.41-2.59,.41-4.4,0-8-3.6-8-8,0-.18,.02-.36,.03-.53l2.47,2.44,1.41-1.41-4.19-4.22-.72-.69-.72,.69-4.19,4.22ZM11.9,6.91l1.5,1.5c.8-.3,1.7-.41,2.59-.41,4.4,0,8,3.6,8,8,0,.18-.02,.36-.03,.53l-2.47-2.44-1.41,1.41,4.19,4.22,.72,.69,.72-.69,4.19-4.22-1.41-1.41-2.53,2.5c.01-.2,.03-.4,.03-.59,0-5.5-4.5-10-10-10-1.5,0-2.89,.3-4.09,.91Z"/>
</svg>