<?xml version="1.0" encoding="UTF-8"?>
<svg id="_Слой_1" data-name="Слой 1" xmlns="http://www.w3.org/2000/svg" viewBox="0 0 32 32">
  <defs>
    <style>
      .cls-1 {
        fill: #fff;
      }
    </style>
  </defs>
  <path class="cls-1" d="M15.5,2.09l-1.41,1.41,2.5,2.53c-.2-.01-.39-.03-.59-.03-5.5,0-10,4.5-10,10,0,1.5,.3,2.89,.91,4.09l1.5-1.5c-.2-.8-.41-1.7-.41-2.59,0-4.4,3.6-8,8-8,.18,0,.36,.02,.53,.03l-2.44,2.47,1.41,1.41,4.22-4.19,.69-.72-.69-.72L15.5,2.09Zm9.59,9.81l-1.5,1.5c.3,.8,.41,1.7,.41,2.59,0,4.4-3.6,8-8,8-.18,0-.36-.02-.53-.03l2.44-2.47-1.41-1.41-4.22,4.19-.69,.72,.69,.72,4.22,4.19,1.41-1.41-2.5-2.53c.2,.01,.4,.03,.59,.03,5.5,0,10-4.5,10-10,0-1.5-.3-2.89-.91-4.09Z"/>
</svg>